<svg width="24" height="26" viewBox="0 0 24 26" fill="none" xmlns="http://www.w3.org/2000/svg">
<path d="M19.4036 8.20128C19.4036 6.29138 18.6449 4.45971 17.2944 3.1092C15.9439 1.7587 14.1122 1 12.2023 1C10.2924 1 8.46074 1.7587 7.11023 3.1092C5.75973 4.45971 5.00103 6.29138 5.00103 8.20128C5.00103 16.6028 1.40039 19.0032 1.40039 19.0032H23.0042C23.0042 19.0032 19.4036 16.6028 19.4036 8.20128Z" stroke="#0095F6" stroke-linecap="round" stroke-linejoin="round"/>
<path d="M14.2787 23.804C14.0677 24.1678 13.7648 24.4697 13.4004 24.6796C13.036 24.8895 12.6229 25 12.2023 25C11.7818 25 11.3687 24.8895 11.0043 24.6796C10.6399 24.4697 10.337 24.1678 10.126 23.804" stroke="#0095F6" stroke-linecap="round" stroke-linejoin="round"/>
</svg>
