<svg width="26" height="26" viewBox="0 0 26 26" fill="none" xmlns="http://www.w3.org/2000/svg">
<path d="M22.75 6.47831C19.1425 6.12081 15.5133 5.93665 11.895 5.93665C9.75 5.93665 7.605 6.04498 5.46 6.26165L3.25 6.47831" stroke="white" stroke-width="2" stroke-linecap="round" stroke-linejoin="round"/>
<path d="M9.2085 5.38413L9.44683 3.96496C9.62016 2.93579 9.75016 2.16663 11.581 2.16663H14.4193C16.2502 2.16663 16.391 2.97913 16.5535 3.97579L16.7918 5.38413" stroke="white" stroke-width="2" stroke-linecap="round" stroke-linejoin="round"/>
<path d="M20.4208 9.90161L19.7166 20.8108C19.5974 22.5116 19.4999 23.8333 16.4774 23.8333H9.52243C6.49993 23.8333 6.40243 22.5116 6.28327 20.8108L5.5791 9.90161" stroke="white" stroke-width="2" stroke-linecap="round" stroke-linejoin="round"/>
<path d="M11.1909 17.875H14.7984" stroke="white" stroke-width="2" stroke-linecap="round" stroke-linejoin="round"/>
<path d="M10.2915 13.5416H15.7082" stroke="white" stroke-width="2" stroke-linecap="round" stroke-linejoin="round"/>
</svg>
