<svg width="17" height="16" viewBox="0 0 17 16" fill="none" xmlns="http://www.w3.org/2000/svg">
<mask id="mask0_90_980" style="mask-type:alpha" maskUnits="userSpaceOnUse" x="0" y="0" width="17" height="16">
<circle cx="8.3999" cy="8" r="8" fill="#D9D9D9"/>
</mask>
<g mask="url(#mask0_90_980)">
<mask id="mask1_90_980" style="mask-type:alpha" maskUnits="userSpaceOnUse" x="-3" y="0" width="23" height="16">
<path d="M-2.2749 0H19.0573V15.9991H-2.2749V0Z" fill="white"/>
</mask>
<g mask="url(#mask1_90_980)">
<path fill-rule="evenodd" clip-rule="evenodd" d="M-2.2749 0V15.9991H19.0573V0H-2.2749Z" fill="#2E42A5"/>
<mask id="mask2_90_980" style="mask-type:alpha" maskUnits="userSpaceOnUse" x="-3" y="0" width="23" height="16">
<path fill-rule="evenodd" clip-rule="evenodd" d="M-2.2749 0V15.9991H19.0573V0H-2.2749Z" fill="white"/>
</mask>
<g mask="url(#mask2_90_980)">
<mask id="mask3_90_980" style="mask-type:alpha" maskUnits="userSpaceOnUse" x="-3" y="0" width="23" height="16">
<path d="M-2.2749 0H19.0573V15.9991H-2.2749V0Z" fill="white"/>
</mask>
<g mask="url(#mask3_90_980)">
<path d="M-4.65015 14.8561L0.0440617 16.8413L19.1639 2.15838L21.6399 -0.791785L16.6202 -1.45532L8.82168 4.87199L2.54466 9.13513L-4.65015 14.8561Z" fill="white"/>
<path d="M-4.00757 16.247L-1.61609 17.3991L20.7507 -1.06589H17.3928L-4.00757 16.247Z" fill="#F50100"/>
<path d="M21.4327 14.8561L16.7385 16.8413L-2.38133 2.15838L-4.85742 -0.791785L0.162363 -1.45532L7.96086 4.87199L14.2379 9.13513L21.4327 14.8561Z" fill="white"/>
<path d="M21.2725 15.8544L18.881 17.0064L9.357 9.10066L6.53328 8.21731L-5.0957 -0.781647H-1.73779L9.8847 8.00372L12.9719 9.06293L21.2725 15.8544Z" fill="#F50100"/>
<path fill-rule="evenodd" clip-rule="evenodd" d="M10.9095 -1.33328H5.8728V5.33303H-3.58984V10.6661H5.8728V17.3324H10.9095V10.6661H20.4089V5.33303H10.9095V-1.33328Z" fill="#F50100"/>
<mask id="mask4_90_980" style="mask-type:alpha" maskUnits="userSpaceOnUse" x="-4" y="-2" width="25" height="20">
<path fill-rule="evenodd" clip-rule="evenodd" d="M10.9095 -1.33328H5.8728V5.33303H-3.58984V10.6661H5.8728V17.3324H10.9095V10.6661H20.4089V5.33303H10.9095V-1.33328Z" fill="white"/>
</mask>
<g mask="url(#mask4_90_980)">
<path d="M5.87281 -1.3333V-2.66656H4.53955V-1.3333H5.87281ZM10.9095 -1.3333H12.2428V-2.66656H10.9095V-1.3333ZM5.87281 5.33301V6.66627H7.20608V5.33301H5.87281ZM-3.58983 5.33301V3.99974H-4.9231V5.33301H-3.58983ZM-3.58983 10.6661H-4.9231V11.9993H-3.58983V10.6661ZM5.87281 10.6661H7.20608V9.33279H5.87281V10.6661ZM5.87281 17.3324H4.53955V18.6656H5.87281V17.3324ZM10.9095 17.3324V18.6656H12.2428V17.3324H10.9095ZM10.9095 10.6661V9.33279H9.57628V10.6661H10.9095ZM20.4089 10.6661V11.9993H21.7422V10.6661H20.4089ZM20.4089 5.33301H21.7422V3.99974H20.4089V5.33301ZM10.9095 5.33301H9.57628V6.66627H10.9095V5.33301ZM5.87281 -4.1008e-05H10.9095V-2.66656H5.87281V-4.1008e-05ZM7.20608 5.33301V-1.3333H4.53955V5.33301H7.20608ZM-3.58983 6.66627H5.87281V3.99974H-3.58983V6.66627ZM-2.25657 10.6661V5.33301H-4.9231V10.6661H-2.25657ZM5.87281 9.33279H-3.58983V11.9993H5.87281V9.33279ZM7.20608 17.3324V10.6661H4.53955V17.3324H7.20608ZM10.9095 15.9991H5.87281V18.6656H10.9095V15.9991ZM9.57628 10.6661V17.3324H12.2428V10.6661H9.57628ZM20.4089 9.33279H10.9095V11.9993H20.4089V9.33279ZM19.0756 5.33301V10.6661H21.7422V5.33301H19.0756ZM10.9095 6.66627H20.4089V3.99974H10.9095V6.66627ZM9.57628 -1.3333V5.33301H12.2428V-1.3333H9.57628Z" fill="white"/>
</g>
</g>
</g>
</g>
</g>
</svg>
